<svg xmlns="http://www.w3.org/2000/svg" viewBox="0 0 1123 621" width="1123" height="621">
	<defs>
		<clipPath clipPathUnits="userSpaceOnUse" id="cp1">
			<path d="M0 0L1123 0L1123 621L0 621Z" />
		</clipPath>
	</defs>
	<style>
		tspan { white-space:pre }
		.shp0 { fill: #ff7923 } 
	</style>
	<g id="Page 1" clip-path="url(#cp1)">
		<path id="Path 1" class="shp0" d="M739.57 1.38C734.65 9.82 732.42 15.35 732.42 24.67C732.42 41.27 745.38 50 757.44 64.27C768.16 77.09 757.88 99.21 780.66 99.21C786.03 99.21 788.7 95.71 793.16 94.56C786.91 106.79 778.87 114.06 778.87 127.17C778.87 138.81 796.74 145.8 814.6 145.8C823.98 145.8 828 141.72 836.04 138.81C810.14 167.05 787.36 182.78 782.45 215.68C785.13 215.97 786.47 218.02 789.59 218.02C835.14 218.02 853 193.85 882.49 171.43C882.49 173.47 878.92 174.04 878.92 176.09C878.92 187.16 897.68 192.38 914.64 192.38C927.14 192.38 930.72 183.07 943.22 183.07C949.47 183.07 949.47 190.06 955.72 190.06C1002.63 190.06 1028.52 181.03 1075.43 178.41C1045.05 201.42 1025.4 218.88 1025.4 249.46C1025.4 255.58 1034.78 257.61 1043.26 259.94C1024.51 268.68 1007.54 277.12 1007.54 292.55C1007.54 306.54 1029.42 313.22 1050.41 315.86C1005.31 341.17 932.51 340 932.51 378.73C932.51 395.34 959.75 399.41 982.52 406.69C1013.34 416.6 1025.84 428.53 1053.99 441.63C1079.89 453.58 1102.66 455.33 1121.87 471.92C1107.58 470.17 1099.1 469.59 1084.35 469.59C1037.9 469.59 1015.57 485.88 971.81 495.21C952.6 499.28 925.37 498.11 925.37 511.5C925.37 516.18 931.16 517.92 936.08 520.83C895.44 518.51 873.11 511.5 832.46 511.5C811.04 511.5 786.03 516.18 786.03 530.15C786.03 567.13 811.04 586.06 828.89 621C784.24 601.79 751.19 597.12 707.42 576.74C691.79 569.46 673.91 572.1 660.98 562.77C640.87 548.49 642.66 523.16 612.74 523.16C603.36 523.16 600.67 529.57 596.66 534.82C573.88 506.86 584.15 482.68 553.79 457.93C512.26 472.79 500.64 493.76 478.76 520.83C461.8 541.8 439.46 552.86 439.46 576.74C439.46 584.01 450.17 586.93 450.17 594.2C450.17 599.75 440.8 602.36 432.31 602.36C420.25 602.36 414.45 593.91 414.45 586.06C414.45 568.6 419.92 563.16 434.68 548.59C463.26 520.36 479.79 503.19 498.97 471.73C496.31 471.73 494.96 469.39 491.83 469.39C475.31 469.39 468.16 478.13 452.53 481.05C409.67 489.5 394.79 488.52 353.72 499.88C326.91 507.44 317.09 523.16 287.61 523.16C263.93 523.16 252.33 513.85 228.66 513.85C201.87 513.85 184.88 515.89 160.78 523.16L135.77 523.16C165.69 485.88 235.81 479.21 235.81 436.98C235.81 407.56 168.36 423.29 125.04 416.01C125.04 413.67 121.48 412.53 121.48 410.19C121.48 401.73 135.77 398.84 135.77 390.39C135.77 371.18 100.04 369.71 85.74 353.11C73.68 339.14 80.83 326.91 67.88 313.52C50.01 294.89 20.54 294.01 0 276.25L96.47 276.25C123.27 276.25 135.77 264.6 162.57 264.6C172.84 264.6 177.3 269.25 187.57 269.25C202.3 269.25 214.36 261.4 214.36 251.78C214.36 215.4 153.63 209.57 125.04 178.41C133.08 181.03 138.9 183.07 148.27 183.07C172.84 183.07 192.93 169.97 192.93 153.96C192.93 142.01 183.11 136.19 178.63 124.84C206.78 123.96 207.22 100.09 207.22 81.74C207.22 66.89 202.76 57.87 200.07 43.3C244.74 54.95 257.24 85.24 305.48 85.24C312.17 85.24 315.76 82.61 321.55 80.58C335.84 91.35 347.45 101.54 369.79 101.54C384.08 101.54 393.91 94.27 396.58 85.24C409.98 132.11 429.63 175.5 500.2 187.73C520.74 162.1 528.78 144.63 528.78 115.52C528.78 98.04 539.5 88.73 539.5 71.26C545.75 80.28 552.46 89.9 568.09 89.9C596.21 89.9 607.38 68.63 607.38 50.3C614.07 54.67 618.99 59.61 628.82 59.61C642.66 59.61 645.35 49.71 657.39 45.64C694.02 33.41 706.98 17.69 739.57 1.38Z" />
	</g>
</svg>